<?xml version="1.0" standalone="no"?>
<!DOCTYPE svg PUBLIC "-//W3C//DTD SVG 20010904//EN"
 "http://www.w3.org/TR/2001/REC-SVG-20010904/DTD/svg10.dtd">
<svg version="1.0" xmlns="http://www.w3.org/2000/svg"
 width="794.000000pt" height="794.000000pt" viewBox="0 0 794.000000 794.000000"
 preserveAspectRatio="xMidYMid meet">
<metadata>
Created by potrace 1.14, written by Peter Selinger 2001-2017
</metadata>
<g transform="translate(0.000000,794.000000) scale(0.100000,-0.100000)"
fill="#000000" stroke="none">
<path d="M2655 7644 c-134 -21 -273 -94 -383 -202 -81 -79 -114 -131 -177
-281 -49 -118 -101 -445 -116 -731 -12 -242 -27 -393 -41 -401 -7 -4 11 -39
44 -90 128 -195 356 -682 449 -960 63 -188 118 -496 91 -513 -16 -10 -21 4
-32 105 -20 179 -80 376 -201 666 -48 116 -104 242 -123 280 -19 37 -46 93
-60 123 -14 30 -48 93 -75 140 -28 47 -60 104 -72 128 -11 23 -25 42 -30 42
-5 0 -9 -20 -9 -44 0 -63 -39 -244 -62 -291 -11 -21 -56 -120 -98 -220 -43
-99 -107 -241 -143 -315 -87 -182 -152 -395 -216 -710 -30 -146 -81 -349 -103
-405 -7 -16 -45 -109 -86 -205 -41 -96 -94 -236 -119 -310 -43 -128 -45 -142
-50 -275 -4 -110 -1 -172 16 -290 30 -206 37 -348 22 -427 -7 -34 -31 -108
-54 -163 -38 -92 -41 -107 -41 -195 -1 -74 3 -105 18 -138 26 -58 84 -92 156
-92 142 0 203 136 151 338 -11 45 -21 100 -21 122 0 42 30 115 37 93 3 -7 11
-13 19 -13 9 0 12 5 9 10 -15 24 15 7 40 -21 60 -72 105 -199 105 -295 0 -75
-32 -166 -96 -274 -121 -205 -142 -263 -123 -351 22 -102 143 -179 233 -149
48 15 111 89 125 145 6 24 11 98 11 164 0 139 13 212 44 248 19 22 28 25 52
19 44 -11 110 -87 128 -146 41 -139 31 -227 -53 -445 -73 -190 -85 -240 -78
-323 12 -122 71 -200 170 -222 68 -16 110 -8 170 30 94 59 131 208 93 375 -9
39 -25 115 -37 170 -41 197 4 352 95 329 l26 -6 -6 68 c-4 55 -1 88 20 164 36
138 82 229 182 358 l51 66 -38 92 c-21 51 -43 118 -48 150 -23 123 -8 312 35
449 51 161 124 338 146 351 29 18 97 -144 119 -284 12 -82 24 -108 35 -76 41
122 112 221 188 265 60 34 48 37 -37 8 -88 -30 -136 -29 -180 1 -21 14 -39 33
-42 42 -3 9 -24 36 -46 60 -50 54 -111 154 -145 238 -60 147 -81 374 -50 533
8 40 17 99 20 132 4 33 10 74 15 90 l9 30 1 -28 c1 -36 21 -25 21 11 0 15 9
44 20 65 11 20 20 54 20 76 0 52 161 369 277 545 46 71 125 197 175 280 50 83
117 189 148 236 62 93 204 362 237 450 92 240 140 463 149 688 l7 158 -38 150
c-21 82 -49 169 -64 194 -46 79 -169 237 -214 274 -50 41 -172 101 -249 122
-53 15 -266 27 -323 18z m383 -293 c-3 -43 -5 -46 -38 -53 -19 -4 -67 -8 -107
-9 -64 -1 -72 -3 -77 -23 -3 -11 -1 -22 4 -24 6 -2 10 -8 10 -13 0 -6 -4 -7
-10 -4 -6 4 -10 -29 -10 -91 0 -84 2 -95 15 -84 8 7 25 10 40 6 14 -4 25 -3
25 1 0 5 50 8 112 8 l112 0 8 -30 c4 -16 6 -54 3 -84 -6 -81 2 -105 38 -120
18 -7 42 -17 55 -22 12 -5 22 -12 22 -16 0 -10 -95 -15 -137 -8 -32 6 -33 7
-33 58 0 29 -3 76 -6 105 l-7 52 -133 0 -134 0 -2 -87 c-1 -49 -3 -107 -3
-130 0 -63 5 -60 -133 -62 l-98 -1 -12 -34 c-7 -19 -19 -40 -27 -46 -13 -11
-15 -4 -15 44 0 33 5 63 13 70 7 8 55 15 116 20 58 3 106 7 107 9 1 1 4 54 5
117 l4 115 -138 0 c-131 -1 -137 0 -138 20 -3 28 -5 89 -7 156 l-2 56 -57 13
c-50 12 -55 14 -33 21 14 4 53 7 86 8 l62 1 7 -91 c4 -49 5 -93 1 -96 -3 -3
-1 -12 5 -19 7 -9 38 -11 116 -8 59 2 109 7 112 10 3 3 7 56 9 117 2 62 7 115
10 119 6 5 132 20 189 21 7 0 10 4 7 9 -3 5 6 28 22 51 27 41 27 41 36 17 5
-13 8 -44 6 -69z m-388 -122 c0 -6 9 -8 22 -4 17 6 20 4 15 -9 -5 -11 -3 -15
5 -10 8 5 9 -4 5 -31 -7 -45 -5 -42 -42 -50 -23 -5 -26 -4 -15 4 10 7 11 11 3
11 -16 0 -53 40 -53 57 0 7 9 13 20 13 11 0 20 7 20 15 0 8 5 15 10 15 6 0 10
-5 10 -11z m328 -11 c13 -17 9 -64 -6 -60 -7 1 -11 -4 -9 -10 1 -7 -5 -13 -13
-13 -8 0 -18 -4 -22 -9 -3 -5 -14 -2 -23 8 -16 16 -16 18 5 36 16 14 27 17 35
10 13 -11 28 -2 19 11 -9 15 -46 10 -66 -8 -17 -15 -18 -15 -18 0 0 10 5 17
11 17 5 0 7 5 4 11 -5 7 7 8 37 4 31 -4 39 -3 28 5 -8 5 -10 10 -4 10 6 0 16
-6 22 -12z m145 -115 c-7 -2 -19 -2 -25 0 -7 3 -2 5 12 5 14 0 19 -2 13 -5z
m37 -3 c0 -5 -2 -10 -4 -10 -3 0 -8 5 -11 10 -3 6 -1 10 4 10 6 0 11 -4 11
-10z m-523 -173 c8 -5 10 -20 7 -36 -4 -20 -3 -23 5 -11 6 8 11 10 11 4 0 -6
-8 -18 -17 -25 -11 -10 -14 -10 -9 -1 4 7 1 12 -9 12 -10 0 -14 -5 -10 -12 4
-7 -1 -4 -10 7 -15 19 -15 21 5 37 25 20 26 31 1 23 -11 -3 -22 -1 -25 4 -8
12 35 11 51 -2z m273 -19 c-13 -13 -19 -16 -15 -8 14 25 28 41 32 36 3 -3 -5
-15 -17 -28z m71 9 c-16 -16 -13 -30 4 -23 11 4 15 -1 15 -19 0 -25 -16 -42
-28 -30 -4 4 -1 10 6 12 6 3 12 9 12 15 0 6 -7 7 -17 3 -10 -4 -27 -7 -38 -7
-11 1 -22 -4 -26 -9 -4 -7 -9 -4 -12 5 -4 11 -1 16 12 16 10 0 21 7 25 15 3 8
13 15 22 15 13 0 14 3 5 14 -10 12 -8 13 9 9 15 -4 18 -9 11 -16z m-34 -73
c-3 -3 -12 -4 -19 -1 -8 3 -5 6 6 6 11 1 17 -2 13 -5z m373 -57 c0 -5 -13 1
-30 13 -16 12 -30 24 -30 26 0 3 14 -3 30 -13 17 -9 30 -21 30 -26z m-470
-107 c0 -5 -5 -10 -11 -10 -5 0 -7 5 -4 10 3 6 8 10 11 10 2 0 4 -4 4 -10z
m-54 -256 l81 -6 6 -53 c6 -55 39 -132 66 -152 9 -6 42 -21 74 -33 l59 -22 -7
-116 c-8 -121 -17 -157 -40 -149 -25 10 -99 -14 -145 -48 -34 -25 -50 -46 -63
-82 -9 -26 -17 -56 -17 -65 0 -15 -7 -17 -42 -14 -24 3 -95 5 -159 5 l-116 1
-5 70 c-8 101 -36 135 -142 171 l-51 18 -3 48 c-2 26 -1 89 3 140 l7 92 56 6
c125 14 179 54 202 150 l14 57 70 -6 c39 -3 108 -8 152 -12z m-973 -1363 c7
-8 8 -12 2 -9 -6 4 -11 -17 -11 -55 -2 -64 -18 -142 -32 -151 -4 -3 -14 -1
-22 4 -12 7 -12 26 -2 117 6 59 19 128 29 153 l18 45 3 -45 c2 -24 9 -51 15
-59z m14 37 c-3 -8 -6 -5 -6 6 -1 11 2 17 5 13 3 -3 4 -12 1 -19z m53 -173 c0
-2 -10 -10 -22 -16 -21 -11 -22 -11 -9 4 13 16 31 23 31 12z m167 -16 c71 -26
123 -116 123 -211 0 -52 -29 -165 -46 -179 -12 -10 -13 7 -8 109 7 113 6 122
-16 157 -30 49 -75 75 -128 75 -54 0 -93 -20 -128 -65 -25 -33 -26 -39 -21
-118 3 -45 7 -91 9 -101 5 -30 -20 -30 -35 1 -23 45 -30 91 -22 159 7 72 44
133 100 165 34 20 129 25 172 8z m83 -24 c13 -14 21 -25 18 -25 -2 0 -15 11
-28 25 -13 14 -21 25 -18 25 2 0 15 -11 28 -25z m-403 -37 c-3 -8 -6 -5 -6 6
-1 11 2 17 5 13 3 -3 4 -12 1 -19z m43 -30 c1 -53 -25 -266 -33 -276 -23 -29
-29 8 -18 114 16 150 21 174 37 174 8 0 14 -6 14 -12z m327 -195 c-3 -10 -5
-4 -5 12 0 17 2 24 5 18 2 -7 2 -21 0 -30z m-240 -75 c-3 -8 -6 -5 -6 6 -1 11
2 17 5 13 3 -3 4 -12 1 -19z m-170 -40 c-3 -8 -6 -5 -6 6 -1 11 2 17 5 13 3
-3 4 -12 1 -19z m39 -35 c-3 -27 -13 -122 -22 -213 -8 -91 -24 -235 -35 -320
-12 -101 -15 -158 -9 -164 15 -15 12 -53 -5 -69 -21 -21 -69 -8 -73 21 -2 11
6 34 16 49 14 19 22 52 26 103 10 140 53 503 67 565 15 70 17 75 30 75 7 0 9
-16 5 -47z m-49 -25 c-3 -7 -5 -2 -5 12 0 14 2 19 5 13 2 -7 2 -19 0 -25z
m-10 -70 c-3 -7 -5 -2 -5 12 0 14 2 19 5 13 2 -7 2 -19 0 -25z m-10 -70 c-3
-8 -6 -5 -6 6 -1 11 2 17 5 13 3 -3 4 -12 1 -19z m-100 -580 c-3 -8 -6 -5 -6
6 -1 11 2 17 5 13 3 -3 4 -12 1 -19z m342 -245 c1 -75 -9 -107 -27 -88 -4 3
-6 51 -5 105 3 167 29 152 32 -17z m-42 95 c-3 -7 -5 -2 -5 12 0 14 2 19 5 13
2 -7 2 -19 0 -25z m-417 -53 c0 -5 -5 -3 -10 5 -5 8 -10 20 -10 25 0 6 5 3 10
-5 5 -8 10 -19 10 -25z m407 -22 c-3 -10 -5 -4 -5 12 0 17 2 24 5 18 2 -7 2
-21 0 -30z m0 -65 c-3 -7 -5 -2 -5 12 0 14 2 19 5 13 2 -7 2 -19 0 -25z m60
-129 c27 -144 28 -348 3 -389 -27 -44 -51 67 -51 242 -1 213 22 284 48 147z
m111 -3 c58 -27 302 -294 302 -330 0 -3 -38 17 -85 44 -76 45 -178 91 -260
117 -29 9 -30 13 -37 84 -4 41 -9 88 -12 106 l-5 32 32 -19 c18 -11 47 -26 65
-34z m-634 2 c31 -36 51 -88 28 -74 -5 3 -21 -2 -37 -10 -15 -8 -30 -13 -32
-10 -7 6 -19 100 -15 119 5 26 17 21 56 -25z m85 -9 c1 8 4 12 7 8 3 -3 -1
-16 -10 -29 -16 -22 -16 -22 -15 17 1 35 2 37 9 15 4 -14 8 -19 9 -11z m89
-24 c-3 -30 -7 -57 -10 -60 -2 -3 -20 3 -39 13 l-35 18 18 29 c18 31 45 55 61
55 5 0 7 -24 5 -55z m-274 29 c3 -9 6 -23 5 -32 0 -12 -3 -11 -9 5 -6 13 -15
20 -23 17 -8 -3 -20 2 -27 11 -11 13 -8 15 18 15 18 0 32 -6 36 -16z m383 0
c-3 -3 -22 -9 -41 -14 -28 -6 -36 -5 -36 6 0 10 13 14 42 14 23 0 39 -3 35 -6z
m-446 -43 c-7 -5 -10 -14 -7 -20 4 -6 2 -11 -3 -11 -6 0 -11 17 -11 37 0 36 1
36 18 20 14 -15 15 -19 3 -26z m459 -11 c0 -27 -4 -40 -13 -40 -15 0 -16 47
-3 68 12 20 16 14 16 -28z m-365 -30 c-3 -5 -11 -10 -16 -10 -6 0 -7 5 -4 10
3 6 11 10 16 10 6 0 7 -4 4 -10z m113 -24 c2 -10 -5 -26 -16 -36 -19 -18 -20
-18 -38 2 -18 19 -18 20 5 39 27 22 44 20 49 -5z m80 12 c7 -7 12 -20 12 -31
0 -16 -5 -18 -32 -12 -41 9 -41 9 -33 34 7 23 34 28 53 9z m-243 -18 c40 -1
48 -14 28 -48 -10 -18 -23 -32 -29 -32 -6 0 -28 16 -50 35 -33 29 -37 36 -24
45 8 6 24 8 35 5 11 -2 29 -5 40 -5z m424 -19 c10 -7 4 -16 -29 -40 -47 -34
-54 -32 -65 17 l-7 32 44 0 c24 0 49 -4 57 -9z m-323 -36 c21 -32 4 -58 -35
-53 -31 4 -40 38 -16 62 22 22 32 20 51 -9z m202 13 c7 -7 12 -22 12 -35 0
-18 -6 -23 -24 -23 -26 0 -40 23 -31 51 7 22 25 25 43 7z m167 -38 c3 -5 1
-10 -4 -10 -6 0 -11 5 -11 10 0 6 2 10 4 10 3 0 8 -4 11 -10z m-267 -27 c4
-27 -36 -53 -49 -32 -11 17 -11 43 -2 53 15 14 48 1 51 -21z m626 -72 c64 -51
127 -125 155 -178 10 -21 7 -20 -34 8 -60 40 -153 77 -218 87 l-52 7 -3 55
c-2 30 0 70 3 88 l6 33 37 -22 c20 -12 68 -47 106 -78z m-924 82 c0 -5 -11 -9
-25 -9 -14 -1 -22 2 -19 7 6 11 44 12 44 2z m570 -28 c-7 -9 -15 -13 -18 -10
-3 2 1 11 8 20 7 9 15 13 18 10 3 -2 -1 -11 -8 -20z m-165 -24 c0 -33 -30 -51
-51 -30 -13 14 -14 20 -2 38 18 29 53 24 53 -8z m-441 4 c-4 -8 -10 -12 -15
-9 -14 8 -10 24 6 24 9 0 12 -6 9 -15z m156 -20 c0 -13 5 -27 10 -30 18 -11 0
-25 -34 -25 -18 0 -47 5 -65 11 l-32 11 22 24 c22 24 76 45 92 37 4 -2 7 -15
7 -28z m74 18 c8 -21 -17 -48 -38 -40 -9 4 -16 18 -16 32 0 20 5 25 24 25 13
0 27 -8 30 -17z m305 -31 c49 -43 48 -62 -3 -62 -37 0 -99 19 -93 29 2 3 10
21 17 39 8 17 19 32 25 32 6 0 30 -17 54 -38z m-255 -15 c26 -19 17 -51 -16
-55 -35 -4 -56 29 -32 52 19 19 25 20 48 3z m107 -3 c19 -23 -1 -49 -37 -49
-24 0 -30 5 -32 27 -2 19 2 28 15 31 33 8 40 7 54 -9z m84 -110 l5 -39 -10 39
c-6 22 -16 47 -22 55 -11 15 -10 15 5 0 10 -8 20 -33 22 -55z m-55 -16 c0 -26
-4 -50 -10 -53 -10 -6 -70 70 -70 89 0 16 63 34 72 21 4 -5 8 -31 8 -57z
m-130 43 c0 -14 -63 -94 -77 -99 -9 -2 -13 8 -13 33 0 55 15 75 55 75 19 0 35
-4 35 -9z m-192 -19 c-9 -2 -19 -13 -21 -25 -3 -16 -5 -13 -6 10 -1 28 1 30
22 25 17 -5 18 -7 5 -10z m686 -69 c3 -43 8 -197 11 -343 6 -301 13 -410 27
-427 14 -17 6 -64 -14 -77 -13 -8 -22 -6 -37 8 -26 24 -27 52 -2 68 15 9 17
17 11 37 -8 25 -12 115 -26 599 -6 185 -5 212 8 212 12 0 17 -18 22 -77z
m-239 19 c-3 -3 -11 0 -18 7 -9 10 -8 11 6 5 10 -3 15 -9 12 -12z m-235 -12
c0 -26 23 -74 83 -170 61 -98 68 -130 33 -165 -23 -23 -29 -24 -48 -13 -23 12
-23 12 6 18 61 11 60 55 -4 140 -62 83 -111 210 -81 210 6 0 11 -9 11 -20z
m427 -172 c-3 -7 -5 -2 -5 12 0 14 2 19 5 13 2 -7 2 -19 0 -25z"/>
<path d="M2630 7195 c-18 -21 -5 -31 15 -12 8 9 11 18 6 21 -5 3 -14 -1 -21
-9z"/>
<path d="M2671 7163 c0 -25 1 -26 9 -8 12 27 12 35 0 35 -5 0 -10 -12 -9 -27z"/>
<path d="M2692 6360 c-12 -5 -30 -23 -40 -40 -9 -16 -26 -33 -37 -36 -32 -11
-135 -85 -151 -110 -9 -12 -28 -25 -42 -29 -15 -3 -41 -16 -57 -29 -28 -23
-28 -24 -13 -48 9 -14 33 -33 52 -42 20 -9 36 -23 36 -30 0 -8 7 -19 15 -26
18 -15 18 -12 5 26 -6 17 -25 37 -48 49 -54 29 -50 56 13 76 27 10 51 23 53
30 15 47 72 67 72 26 0 -13 9 -35 21 -48 16 -18 24 -21 37 -13 9 6 18 23 20
37 3 25 -3 34 -43 62 l-20 14 20 15 c11 8 28 16 37 16 9 0 30 19 45 42 16 24
36 44 45 46 23 4 57 -32 65 -68 4 -20 12 -30 24 -30 19 0 62 -47 54 -60 -2 -4
-19 -10 -37 -14 -63 -13 -93 -69 -42 -82 18 -5 32 0 50 17 13 12 24 28 24 36
0 16 5 16 31 3 10 -6 19 -21 19 -34 0 -19 10 -29 45 -46 25 -12 45 -25 45 -28
-1 -18 -21 -35 -56 -47 -26 -9 -40 -20 -42 -34 -4 -23 -47 -61 -68 -61 -8 0
-14 11 -14 25 0 14 -8 33 -18 43 -18 18 -18 19 17 20 24 1 42 9 54 23 33 40
15 61 -60 67 -76 6 -85 14 -67 57 26 63 14 105 -31 105 -40 0 -58 -23 -60 -79
-2 -59 -15 -74 -52 -60 -56 21 -113 -1 -113 -44 0 -23 18 -31 85 -37 l60 -5 0
-69 c0 -61 2 -69 22 -77 28 -10 55 28 58 85 2 41 14 52 42 42 14 -6 14 -8 -2
-20 -27 -19 -12 -65 25 -79 17 -6 30 -17 30 -24 0 -17 -33 -33 -69 -33 -20 0
-31 -5 -31 -14 0 -8 -11 -28 -24 -43 -20 -23 -28 -26 -43 -17 -10 6 -22 30
-27 53 -8 33 -15 43 -35 48 -26 6 -50 29 -51 48 0 6 16 17 35 24 55 19 72 71
24 71 -25 0 -73 -46 -63 -61 3 -6 0 -15 -7 -20 -12 -7 -12 -13 1 -36 9 -15 26
-33 39 -40 13 -6 36 -35 50 -64 14 -29 32 -55 39 -57 7 -2 32 16 55 40 23 25
55 50 72 57 16 7 35 21 42 30 7 10 25 23 40 30 16 6 37 25 48 41 11 17 39 42
62 57 23 14 45 33 48 41 7 19 -18 47 -56 62 -17 7 -29 20 -29 30 0 10 -11 31
-24 47 -13 15 -25 37 -27 48 -3 11 -19 29 -36 40 -18 11 -32 26 -33 34 0 15
-63 81 -76 80 -5 0 -19 -4 -32 -9z m36 -177 c4 -26 -25 -73 -44 -73 -17 0 -22
49 -9 88 8 22 50 10 53 -15z m-118 -113 c11 -7 9 -11 -13 -19 -48 -18 -98 -7
-83 18 9 13 75 14 96 1z m98 -2 c15 -15 -12 -48 -39 -48 -19 0 -35 33 -24 50
8 14 48 13 63 -2z m137 -33 c0 -15 -8 -21 -32 -23 -33 -3 -73 12 -73 28 0 12
28 18 70 17 28 -2 35 -6 35 -22z m-157 -77 c4 -35 -15 -70 -35 -66 -20 4 -24
31 -11 69 13 37 42 35 46 -3z"/>
<path d="M5040 7550 c-119 -21 -260 -93 -342 -173 -115 -115 -159 -195 -204
-376 -29 -115 -34 -153 -34 -251 0 -357 84 -603 410 -1210 45 -85 101 -184
123 -220 112 -184 386 -690 427 -790 10 -25 22 -58 26 -75 6 -25 9 -16 16 50
22 194 95 501 159 662 80 200 123 291 244 518 76 142 179 306 197 313 4 2 8
10 8 18 0 9 -4 13 -9 10 -13 -9 -20 47 -41 354 -21 310 -30 385 -66 533 -30
121 -54 181 -106 269 -83 140 -252 286 -388 337 -103 38 -297 52 -420 31z
m260 -184 c0 -3 -4 -8 -10 -11 -5 -3 -10 -1 -10 4 0 6 5 11 10 11 6 0 10 -2
10 -4z m-164 -176 c4 0 4 8 1 19 -4 17 -3 18 34 3 45 -17 45 -20 -2 -26 -40
-5 -79 25 -79 58 1 16 6 12 21 -16 11 -21 22 -38 25 -38z m219 12 c-7 -7 -55
27 -55 39 0 5 13 0 30 -12 16 -13 28 -25 25 -27z m-438 -48 c-3 -3 -12 -4 -19
-1 -8 3 -5 6 6 6 11 1 17 -2 13 -5z m646 -18 c4 -10 1 -13 -9 -9 -15 6 -19 23
-5 23 5 0 11 -7 14 -14z m-233 -5 c0 -5 -7 -14 -15 -21 -18 -15 -42 1 -31 19
8 13 46 15 46 2z m-294 -17 c-24 -17 -57 -18 -79 -1 -14 10 -8 12 41 14 51 1
55 0 38 -13z m171 10 c-3 -3 -12 -4 -19 -1 -8 3 -5 6 6 6 11 1 17 -2 13 -5z
m51 -30 c-4 -25 -32 -24 -36 0 -4 21 18 40 31 27 5 -5 7 -17 5 -27z m149 0 c1
-5 -2 -16 -7 -24 -12 -20 -33 0 -24 24 7 17 25 17 31 0z m-247 -3 c0 -20 -13
-41 -21 -35 -15 9 -10 44 6 44 8 0 15 -4 15 -9z m196 -13 c0 -22 -12 -38 -28
-38 -10 0 -10 44 -1 53 14 14 29 6 29 -15z m-148 -18 c10 -17 10 -20 -6 -20
-24 0 -32 8 -25 26 7 19 16 18 31 -6z m82 -7 c0 -20 -3 -24 -11 -16 -7 7 -9
19 -6 27 10 24 17 19 17 -11z m170 13 c0 -16 -18 -31 -27 -22 -8 8 5 36 17 36
5 0 10 -6 10 -14z m-380 -17 c0 -24 -23 -21 -28 4 -2 10 3 17 12 17 10 0 16
-9 16 -21z m438 -1 c-2 -13 -11 -24 -20 -26 -21 -4 -24 18 -6 36 19 19 30 14
26 -10z m-578 2 c-35 -24 -54 -31 -30 -11 14 11 30 21 35 21 6 0 3 -5 -5 -10z
m189 -3 c12 -15 5 -27 -16 -27 -7 0 -13 9 -13 20 0 23 13 26 29 7z m-94 -7
c-3 -5 -13 -10 -21 -10 -8 0 -12 5 -9 10 3 6 13 10 21 10 8 0 12 -4 9 -10z
m337 -32 c-18 -19 -22 -20 -22 -6 0 9 8 21 17 27 27 15 29 3 5 -21z m-312 -3
c0 -8 -4 -15 -10 -15 -5 0 -10 7 -10 15 0 8 5 15 10 15 6 0 10 -7 10 -15z
m375 -5 c-21 -23 -35 -26 -35 -6 0 15 14 24 39 25 11 1 10 -4 -4 -19z m-421
-5 c-4 -8 -12 -15 -20 -15 -8 0 -14 7 -14 15 0 8 9 15 20 15 13 0 18 -5 14
-15z m555 -14 c-3 -6 -10 -7 -18 -2 -7 5 -10 14 -6 21 9 14 29 -2 24 -19z
m-609 11 c0 -13 -12 -22 -22 -16 -10 6 -1 24 13 24 5 0 9 -4 9 -8z m546 -24
c-2 -16 -11 -24 -29 -26 -31 -4 -34 4 -10 30 23 25 44 23 39 -4z m-861 -9 c15
-14 -7 -10 -35 7 l-25 15 25 -7 c14 -3 29 -10 35 -15z m669 -4 c18 -14 16 -15
-30 -15 -45 1 -48 2 -30 15 24 19 36 18 60 0z m-366 -12 c2 -8 -5 -13 -17 -13
-12 0 -21 6 -21 16 0 18 31 15 38 -3z m-58 -12 c0 -9 -70 -30 -110 -32 -55 -3
-52 3 10 20 76 21 100 24 100 12z m530 -1 c0 -5 -4 -10 -9 -10 -6 0 -13 5 -16
10 -3 6 1 10 9 10 9 0 16 -4 16 -10z m-499 -31 c-2 -8 -5 -43 -7 -78 -4 -76
-10 -86 -19 -33 -8 51 4 134 19 129 6 -3 9 -11 7 -18z m171 -1 c-7 -7 -12 -8
-12 -2 0 14 12 26 19 19 2 -3 -1 -11 -7 -17z m490 -33 c-6 -35 24 -78 50 -72
17 5 19 2 14 -18 -9 -36 -25 -75 -30 -75 -3 0 -16 12 -30 26 -26 29 -51 24
-41 -7 10 -32 -1 -22 -34 29 -38 59 -39 86 -6 108 14 9 22 20 19 25 -3 5 10 9
29 9 31 0 34 -2 29 -25z m-512 -205 c8 -5 11 -10 5 -10 -5 0 -17 5 -25 10 -8
5 -10 10 -5 10 6 0 17 -5 25 -10z m622 -102 c-7 -7 -12 -8 -12 -2 0 14 12 26
19 19 2 -3 -1 -11 -7 -17z m-37 -6 c-3 -3 -11 0 -18 7 -9 10 -8 11 6 5 10 -3
15 -9 12 -12z m145 -152 c0 -6 -47 -113 -105 -239 -70 -150 -103 -234 -99
-247 4 -14 3 -15 -4 -5 -10 14 -34 -32 -121 -229 -23 -52 -46 -102 -51 -110
-12 -17 -13 -16 -168 165 -48 55 -91 105 -97 112 -5 6 -37 44 -70 83 -33 40
-81 96 -106 124 -62 68 -179 216 -179 225 0 9 146 38 260 50 47 5 126 15 175
21 458 59 565 68 565 50z m-677 -47 c-7 -2 -21 -2 -30 0 -10 3 -4 5 12 5 17 0
24 -2 18 -5z m-170 -20 c-7 -2 -19 -2 -25 0 -7 3 -2 5 12 5 14 0 19 -2 13 -5z
m-113 -18 c-36 -7 -67 -11 -69 -9 -9 8 52 22 99 22 24 0 15 -4 -30 -13z"/>
<path d="M5615 6353 c-307 -28 -717 -77 -735 -88 -6 -3 -10 -10 -10 -14 0 -8
143 -183 231 -281 54 -61 130 -151 237 -282 26 -31 52 -57 57 -57 6 -1 21 23
34 52 13 28 60 129 103 222 44 94 90 193 103 220 12 28 39 85 59 127 20 43 36
84 36 93 0 15 -19 17 -115 8z m95 -15 c0 -12 -256 -565 -269 -583 -5 -5 -16
-31 -26 -57 -10 -27 -21 -48 -24 -48 -4 0 -14 12 -23 28 -9 15 -42 56 -73 92
-31 36 -93 107 -138 159 -45 52 -93 109 -107 126 -14 18 -54 67 -89 110 -36
43 -60 80 -55 85 21 20 804 106 804 88z"/>
<path d="M5586 6277 c-16 -12 -16 -13 8 -12 31 0 61 25 30 25 -11 0 -28 -6
-38 -13z"/>
<path d="M5495 6260 c19 -21 15 -37 -17 -82 -7 -9 -9 -21 -4 -25 4 -4 12 0 17
10 6 9 17 17 25 17 8 0 12 5 9 11 -4 6 2 13 14 16 23 6 28 19 9 26 -10 4 -9 8
2 17 13 10 13 11 -2 7 -9 -3 -22 1 -28 9 -7 8 -19 14 -28 14 -13 0 -12 -3 3
-20z"/>
<path d="M5408 6243 c-8 -10 -21 -32 -29 -50 -10 -25 -20 -32 -49 -36 -39 -4
-76 14 -85 43 -6 20 -55 23 -55 3 0 -7 5 -13 11 -13 6 0 8 -9 4 -20 -5 -17 -2
-20 23 -20 31 0 67 -30 45 -37 -7 -2 -10 -10 -7 -18 7 -16 -21 -26 -61 -21
-33 5 -71 -16 -61 -33 8 -13 64 -7 79 8 17 17 42 13 65 -12 20 -21 21 -25 6
-46 -25 -35 -9 -37 17 -2 38 52 89 40 89 -21 0 -11 5 -18 13 -15 6 2 19 -2 28
-9 29 -25 17 27 -13 58 -33 34 -32 32 -13 62 19 28 58 24 73 -7 9 -19 11 -20
11 -3 1 12 6 16 17 12 8 -3 13 -2 9 3 -3 5 1 11 7 14 9 3 7 9 -7 20 -10 8 -25
13 -32 10 -7 -3 -13 1 -13 7 0 9 -6 8 -18 -3 -25 -22 -52 -22 -52 1 0 10 -5
23 -11 29 -10 10 2 46 21 63 6 5 11 50 6 50 -2 0 -10 -8 -18 -17z m-33 -133
c9 -15 -3 -47 -21 -54 -19 -7 -54 10 -54 27 0 31 60 52 75 27z"/>
<path d="M5108 6215 c-9 -20 -16 -24 -37 -19 l-26 6 24 -14 c32 -17 38 -38 12
-38 -16 0 -21 -6 -21 -24 0 -14 5 -28 10 -31 6 -3 10 3 10 15 0 11 7 23 15 26
17 7 87 -15 97 -30 5 -6 8 -1 8 13 0 13 -3 21 -7 18 -3 -4 -14 0 -23 8 -10 9
-24 15 -31 13 -10 -2 -14 8 -12 40 2 48 -3 53 -19 17z"/>
<path d="M5005 6200 c-7 -12 12 -40 27 -40 6 0 4 7 -3 17 -8 9 -12 18 -11 20
2 3 1 7 -1 9 -3 3 -8 0 -12 -6z"/>
<path d="M5570 6175 c0 -8 5 -15 10 -15 6 0 10 7 10 15 0 8 -4 15 -10 15 -5 0
-10 -7 -10 -15z"/>
<path d="M5271 5924 c0 -11 3 -14 6 -6 3 7 2 16 -1 19 -3 4 -6 -2 -5 -13z"/>
<path d="M5354 5913 c-3 -17 -17 -42 -30 -54 -28 -27 -31 -43 -6 -35 14 5 21
-5 35 -44 10 -28 24 -50 32 -50 11 0 11 6 2 33 -7 17 -16 35 -21 38 -4 4 -4
14 1 23 9 16 11 16 22 2 17 -20 35 -20 51 -1 11 13 10 14 -2 10 -8 -3 -25 6
-38 21 -22 23 -22 26 -6 20 18 -6 19 -5 4 11 -8 10 -20 27 -26 38 -10 19 -12
18 -18 -12z"/>
<path d="M6035 5933 c-14 -27 -36 -66 -50 -88 -13 -22 -35 -60 -48 -85 -95
-180 -128 -246 -162 -325 -21 -49 -48 -111 -61 -136 -39 -78 -156 -429 -181
-544 -32 -149 -57 -374 -44 -406 5 -13 10 -18 10 -11 2 36 24 -12 69 -151 63
-189 70 -225 84 -412 18 -242 -19 -455 -94 -541 -17 -19 -34 -31 -39 -28 -13
8 -12 3 14 -57 58 -132 78 -295 53 -435 -25 -146 -77 -243 -195 -362 -34 -34
-61 -64 -61 -66 0 -1 9 -14 21 -27 34 -38 94 -130 121 -184 71 -141 97 -306
72 -459 -5 -32 -4 -38 9 -33 8 3 24 -1 36 -9 41 -29 51 -66 51 -184 0 -126
-23 -238 -67 -324 -15 -28 -34 -76 -44 -106 -9 -30 -18 -46 -18 -35 l-2 20
-15 -20 c-15 -20 -16 -20 -39 8 -43 48 -65 168 -64 337 0 63 6 129 12 145 21
53 79 155 89 155 5 0 6 -6 2 -13 -4 -6 -3 -9 1 -4 16 14 20 51 20 172 -1 142
-24 240 -85 352 -45 85 -118 183 -134 183 -14 -1 -84 -97 -130 -181 -49 -90
-113 -288 -131 -406 -8 -54 -15 -101 -15 -105 0 -4 20 -27 45 -52 95 -93 114
-210 71 -432 -15 -77 -37 -175 -48 -219 -25 -99 -34 -217 -19 -271 14 -51 69
-116 118 -139 56 -27 157 -24 218 6 79 40 107 84 140 224 4 17 10 24 12 18 3
-7 11 -13 19 -13 9 0 12 5 9 10 -9 14 10 12 52 -5 77 -32 160 -15 232 50 114
103 123 202 35 398 -39 85 -46 114 -56 207 -10 105 -10 111 15 192 20 62 36
94 62 121 42 43 68 47 91 12 14 -21 16 -43 10 -138 -3 -61 -8 -138 -12 -169
-4 -38 -1 -82 11 -135 16 -71 22 -82 66 -125 47 -47 51 -48 109 -48 76 0 115
16 161 67 75 83 72 188 -10 332 -59 103 -78 163 -86 274 -8 97 10 198 49 275
28 54 133 172 155 172 11 0 11 -3 1 -15 -9 -10 -9 -15 -1 -15 6 0 11 -8 11
-17 1 -12 6 -7 15 12 9 21 14 24 14 12 1 -10 -20 -66 -46 -125 -42 -95 -48
-116 -51 -193 -6 -142 37 -209 146 -225 101 -15 198 48 226 148 20 68 22 124
8 223 -12 96 0 336 21 410 8 28 33 113 56 189 32 110 43 168 53 275 21 252
-12 417 -144 705 -134 293 -160 388 -178 639 -11 164 -27 256 -69 382 -52 161
-71 208 -143 350 -85 170 -162 359 -212 520 -20 66 -45 143 -55 170 -17 45
-55 246 -54 285 0 8 3 27 8 43 12 44 -12 32 -40 -20z m-209 -784 c33 2 47 -3
63 -20 26 -28 45 -93 36 -126 -3 -13 -2 -29 2 -36 5 -7 10 14 13 48 5 56 7 58
17 33 9 -19 9 -44 1 -95 -11 -68 -12 -332 -2 -473 13 -194 26 -332 39 -410 8
-47 19 -121 25 -165 7 -44 21 -126 31 -183 36 -193 51 -370 37 -432 l-12 -55
-6 40 c-5 39 -6 39 -18 17 -22 -38 -24 -18 -6 44 21 74 16 185 -19 374 -62
341 -87 528 -98 745 -6 110 -11 226 -12 258 0 31 -3 57 -6 57 -3 0 -6 39 -7
87 0 49 -4 111 -7 138 -6 37 -5 45 3 30 8 -16 9 -12 6 20 -9 71 -89 112 -130
66 -23 -26 -17 -65 11 -69 24 -4 55 32 46 54 -3 8 0 14 6 14 22 0 12 -58 -14
-78 -31 -24 -60 -19 -82 15 -15 23 -15 27 3 61 10 20 18 40 16 45 -1 5 3 5 10
1 7 -4 31 -7 54 -5z m57 -366 c-10 -15 -12 -24 -5 -20 7 5 12 3 12 -3 0 -6
-11 -15 -24 -20 -42 -15 -111 -130 -151 -249 -19 -56 -25 -96 -25 -158 0 -92
15 -141 57 -185 23 -24 24 -29 13 -64 -8 -24 -11 -70 -8 -130 5 -83 9 -99 43
-161 20 -37 56 -90 79 -118 23 -27 60 -75 83 -105 23 -30 54 -68 68 -84 14
-16 25 -38 25 -50 0 -22 -1 -21 -50 44 -19 25 -64 79 -101 120 -116 132 -153
200 -179 334 -11 52 -11 76 -1 120 12 53 11 56 -15 95 -49 75 -66 199 -40 296
22 84 53 144 144 280 66 99 88 125 90 108 2 -12 -5 -34 -15 -50z m323 -108
c52 -22 138 -115 175 -190 37 -76 48 -155 30 -223 -18 -67 -34 -64 -113 16
-39 40 -74 70 -77 67 -4 -2 -14 -22 -21 -45 -15 -44 -104 -145 -120 -135 -25
16 -51 90 -57 163 -9 124 31 247 105 325 20 20 38 37 39 37 2 0 19 -7 39 -15z
m231 -407 c-3 -7 -5 -2 -5 12 0 14 2 19 5 13 2 -7 2 -19 0 -25z m-510 -40 c-3
-7 -5 -2 -5 12 0 14 2 19 5 13 2 -7 2 -19 0 -25z m493 -28 c-16 -30 -22 -19
-7 13 6 14 13 22 15 17 2 -5 -2 -19 -8 -30z m-45 -18 c-3 -3 -11 0 -18 7 -9
10 -8 11 6 5 10 -3 15 -9 12 -12z m-398 -264 c-3 -8 -6 -5 -6 6 -1 11 2 17 5
13 3 -3 4 -12 1 -19z m10 -60 c-3 -8 -6 -5 -6 6 -1 11 2 17 5 13 3 -3 4 -12 1
-19z m20 -130 c-3 -7 -5 -2 -5 12 0 14 2 19 5 13 2 -7 2 -19 0 -25z m10 -50
c-3 -7 -5 -2 -5 12 0 14 2 19 5 13 2 -7 2 -19 0 -25z m10 -60 c-3 -7 -5 -2 -5
12 0 14 2 19 5 13 2 -7 2 -19 0 -25z m528 -332 c101 -27 162 -76 201 -164 29
-64 32 -164 7 -237 -35 -104 -158 -186 -289 -193 -62 -4 -80 0 -133 23 -143
65 -207 214 -157 365 37 109 108 178 215 206 60 17 95 17 156 0z m-601 -15
c10 -11 16 -26 13 -33 -4 -9 -6 -7 -6 4 -2 41 -73 40 -86 -1 -12 -38 28 -81
74 -81 23 0 79 45 92 74 8 17 8 15 3 -9 -7 -38 -17 -49 -58 -69 -47 -22 -79
-20 -104 7 -35 37 -38 72 -8 101 30 31 57 33 80 7z m721 -1 c3 -6 -1 -7 -9 -4
-18 7 -21 14 -7 14 6 0 13 -4 16 -10z m-702 -147 c-7 -2 -21 -2 -30 0 -10 3
-4 5 12 5 17 0 24 -2 18 -5z m48 -477 c112 -26 198 -99 245 -208 55 -127 8
-297 -106 -387 -68 -54 -136 -75 -237 -74 -72 1 -90 5 -157 37 -132 64 -214
192 -200 314 16 141 68 218 187 277 108 53 175 63 268 41z"/>
<path d="M6136 4609 c-39 -46 -53 -78 -72 -159 -11 -49 -14 -89 -9 -128 7 -57
23 -102 36 -102 17 0 67 71 94 133 16 37 33 67 37 67 4 0 14 -13 22 -28 8 -16
38 -53 66 -83 46 -49 52 -52 62 -35 33 58 -28 226 -115 314 -60 61 -84 65
-121 21z"/>
<path d="M6400 3226 c-70 -22 -106 -53 -133 -114 -37 -81 -42 -127 -22 -195
31 -109 102 -158 228 -160 63 -1 80 3 121 27 62 36 97 76 118 134 52 143 -27
284 -173 312 -63 12 -93 11 -139 -4z m186 -25 c54 -25 111 -92 122 -147 12
-56 5 -96 -17 -92 -13 3 -15 14 -13 54 5 67 -17 94 -79 101 -43 5 -46 7 -41
32 4 24 3 25 -10 8 -14 -18 -15 -18 -51 2 -78 44 -135 16 -124 -61 6 -42 6
-42 -9 -20 -19 25 -34 29 -34 8 0 -10 -7 -12 -22 -8 -22 5 -22 4 -6 -15 14
-15 15 -22 6 -31 -9 -9 -3 -12 28 -12 l39 -1 -27 -16 c-82 -51 -37 -166 53
-134 18 6 34 9 36 7 5 -5 -25 -35 -53 -54 -17 -11 -15 -12 14 -6 27 5 32 3 32
-15 0 -11 -3 -22 -8 -25 -14 -8 -112 45 -130 72 -64 92 -53 238 25 316 54 54
190 73 269 37z m-109 -53 c6 -7 13 -26 15 -41 5 -23 3 -27 -11 -21 -33 14 -56
10 -56 -11 0 -27 -17 -24 -35 8 -22 39 -1 77 44 77 18 0 38 -6 43 -12z m165
-65 c24 -22 24 -69 -1 -83 -27 -14 -78 -13 -84 3 -2 6 2 20 10 29 14 15 13 18
-12 24 l-28 7 24 18 c30 23 67 24 91 2z m-116 -48 c15 -23 15 -27 0 -50 -19
-29 -51 -32 -78 -8 -22 20 -23 41 -1 65 23 26 59 23 79 -7z m-116 -44 c0 -6
-4 -13 -10 -16 -20 -12 -10 -35 15 -35 30 0 32 -13 5 -40 -24 -24 -72 -26 -90
-5 -20 25 -15 66 11 86 25 20 69 25 69 10z m188 -75 c4 -33 -22 -66 -51 -66
-29 0 -57 29 -57 59 1 23 2 24 11 8 10 -16 12 -16 41 8 36 31 52 28 56 -9z
m55 8 c7 18 32 22 42 6 18 -29 -81 -132 -144 -150 -36 -10 -101 -14 -101 -6 0
18 15 36 32 36 18 0 18 2 4 22 -9 12 -16 34 -15 48 0 15 3 19 6 10 8 -23 45
-60 59 -60 44 0 84 44 84 92 0 21 1 21 13 4 12 -17 14 -17 20 -2z"/>
<path d="M6565 3020 c-3 -5 -1 -10 4 -10 6 0 11 5 11 10 0 6 -2 10 -4 10 -3 0
-8 -4 -11 -10z"/>
<path d="M5831 2594 c-61 -16 -130 -64 -156 -107 -16 -27 -15 -29 9 -71 64
-110 247 -161 364 -102 48 25 104 78 135 128 17 27 17 28 -19 67 -19 22 -63
54 -96 71 -70 35 -144 39 -237 14z"/>
<path d="M5620 2410 c-18 -44 -8 -165 17 -215 28 -53 96 -119 152 -147 38 -19
63 -23 146 -23 86 0 107 3 145 23 95 50 151 131 166 239 5 45 -8 123 -22 123
-2 0 -32 -28 -67 -63 -49 -50 -73 -67 -117 -80 -165 -50 -297 -3 -379 136 -13
20 -24 37 -26 37 -1 0 -8 -14 -15 -30z m49 -66 c47 -69 132 -115 224 -122 109
-8 242 46 297 120 20 27 24 29 32 13 13 -22 1 -99 -24 -155 -20 -44 -64 -91
-103 -108 -73 -34 -109 -44 -161 -45 -136 -2 -241 63 -283 176 -20 55 -29 157
-13 157 4 0 18 -16 31 -36z"/>
<path d="M2585 3258 c-82 -161 -135 -367 -135 -520 0 -151 35 -313 77 -358 13
-13 17 -12 36 14 46 62 108 190 129 269 18 67 22 107 22 222 -1 123 -5 155
-33 264 -47 184 -54 192 -96 109z"/>
<path d="M2964 3264 c-21 -15 -45 -35 -52 -45 -7 -10 -19 -24 -27 -32 -25 -26
-83 -141 -98 -197 -8 -30 -20 -93 -26 -140 -27 -201 -84 -361 -176 -488 l-35
-49 31 -29 c76 -72 203 -301 236 -425 9 -35 17 -101 17 -146 1 -57 5 -83 13
-83 6 0 15 5 19 11 9 15 177 2 224 -17 89 -38 131 -119 132 -257 1 -110 -9
-149 -72 -288 -80 -175 -94 -227 -94 -359 -1 -111 0 -117 33 -183 22 -44 54
-86 91 -120 74 -69 145 -92 280 -92 197 1 305 72 379 253 45 109 57 202 43
321 -7 54 -17 111 -22 127 -5 16 -29 106 -52 199 -40 162 -42 177 -41 315 0
137 3 154 42 302 88 337 107 491 87 703 -25 270 -152 500 -344 626 -127 83
-262 119 -453 119 -87 0 -100 -2 -135 -26z m-14 -204 c0 -10 8 -33 17 -52 9
-18 20 -41 25 -50 10 -22 84 -225 93 -258 4 -14 11 -29 15 -35 8 -11 42 -160
60 -263 18 -103 6 -282 -19 -282 -5 0 -3 24 3 53 7 28 11 61 10 72 -7 93 -17
159 -35 241 -11 53 -22 106 -25 117 -7 36 -35 131 -61 202 -13 39 -25 76 -25
83 -1 6 -5 12 -9 12 -9 0 -33 59 -34 84 -1 32 -25 31 -26 -1 -1 -15 -3 -41 -4
-58 -2 -16 -3 -40 -4 -52 -1 -13 -6 -23 -11 -23 -6 0 -8 12 -6 28 14 88 20
151 17 181 -2 22 1 31 8 27 6 -4 11 -16 11 -26z m53 -250 c86 -254 112 -383
112 -560 -1 -102 -4 -142 -16 -164 l-16 -28 -25 53 c-32 68 -75 209 -94 308
-15 79 -21 415 -8 467 8 32 13 25 47 -76z m-73 23 c0 -5 -5 -15 -10 -23 -8
-12 -10 -11 -10 8 0 12 5 22 10 22 6 0 10 -3 10 -7z m-10 -63 c0 -11 -4 -20
-9 -20 -5 0 -7 9 -4 20 3 11 7 20 9 20 2 0 4 -9 4 -20z m537 -45 c-6 -7 -19
-10 -27 -7 -12 5 -12 7 3 10 9 2 15 8 12 13 -3 5 1 6 9 3 12 -5 13 -9 3 -19z
m-535 -65 c0 -44 1 -86 2 -92 1 -7 -6 -14 -15 -16 -12 -2 -15 6 -13 40 1 24 2
67 3 96 2 84 21 61 23 -28z m8 -130 c0 -5 -4 -10 -10 -10 -5 0 -10 5 -10 10 0
6 5 10 10 10 6 0 10 -4 10 -10z m807 -43 c36 -52 52 -109 47 -171 -7 -103 -74
-197 -152 -212 -37 -7 -89 11 -102 36 -11 21 -3 57 16 64 10 4 12 -2 8 -22 -7
-38 7 -53 55 -59 40 -5 44 -3 86 40 28 30 49 64 60 99 16 50 16 58 1 118 -9
35 -28 78 -41 96 -28 37 -30 44 -12 44 6 0 22 -15 34 -33z m-803 -19 c4 -24 9
-59 12 -78 4 -26 3 -31 -5 -20 -9 12 -11 12 -11 1 0 -8 8 -20 18 -27 13 -10
14 -13 3 -14 -12 0 -12 -2 2 -12 9 -7 22 -40 30 -73 8 -33 17 -67 21 -76 5
-11 1 -19 -10 -23 -14 -5 -15 -4 -4 9 9 11 9 15 1 15 -7 0 -9 5 -6 10 3 6 1
10 -5 10 -7 0 -9 7 -6 16 3 8 2 13 -3 10 -5 -3 -11 4 -14 16 -4 12 -2 25 4 29
6 3 1 9 -10 12 -12 3 -21 13 -22 24 0 10 -2 27 -4 38 -2 11 -7 43 -10 70 -3
28 -8 58 -11 67 -6 19 2 38 15 38 5 0 11 -19 15 -42z m78 -350 c-7 -7 -12 -8
-12 -2 0 14 12 26 19 19 2 -3 -1 -11 -7 -17z m11 -25 c-5 -12 -3 -14 7 -8 9 6
11 4 5 -4 -5 -9 -11 -9 -17 -3 -6 6 -7 15 -4 21 11 17 16 13 9 -6z m117 -8 c0
-8 -7 -15 -16 -15 -14 0 -14 3 -4 15 7 8 14 15 16 15 2 0 4 -7 4 -15z m-26
-53 c-5 -24 0 -34 26 -55 38 -32 73 -34 101 -6 23 23 44 14 33 -14 -10 -27
-69 -38 -115 -22 -44 16 -44 15 -24 -40 8 -22 14 -68 15 -101 0 -34 7 -74 15
-90 26 -50 16 -82 -20 -68 -12 5 -16 16 -13 40 2 19 3 34 2 34 -2 0 -14 -4
-27 -9 -35 -14 -67 9 -48 33 10 12 23 15 47 10 l34 -6 -16 31 c-8 17 -18 57
-21 88 -7 85 -10 90 -36 65 -32 -30 -72 -37 -102 -18 -14 9 -25 23 -25 31 0
19 5 19 36 -1 30 -20 64 -9 90 31 15 23 15 27 0 50 -9 14 -12 25 -7 25 5 0 12
-6 15 -12 3 -9 11 -6 23 9 23 29 24 28 17 -5z m126 -298 c0 -22 -29 -29 -47
-11 -13 13 -14 19 -4 31 16 19 51 5 51 -20z m281 -682 c28 -84 30 -183 5 -269
-10 -35 -22 -63 -27 -63 -21 0 -54 104 -65 205 -9 75 31 216 56 200 4 -3 19
-36 31 -73z"/>
<path d="M2778 3273 c7 -3 16 -2 19 1 4 3 -2 6 -13 5 -11 0 -14 -3 -6 -6z"/>
<path d="M4755 3253 c-327 -68 -438 -134 -573 -342 -111 -169 -143 -319 -123
-563 6 -76 18 -168 25 -205 8 -38 19 -104 26 -148 6 -44 23 -125 36 -180 23
-89 25 -115 21 -230 -2 -81 -12 -168 -26 -230 -12 -55 -31 -140 -41 -190 -56
-256 -38 -467 50 -605 44 -69 91 -107 190 -154 73 -35 94 -41 150 -41 164 1
288 87 345 240 29 77 30 86 30 250 l0 170 -94 188 c-75 151 -95 200 -99 243
-4 50 -2 56 29 87 24 24 50 38 87 46 65 14 132 14 166 1 14 -5 26 -6 26 -2 0
63 56 289 102 412 25 68 120 224 166 273 l26 27 -36 74 c-46 93 -71 206 -71
316 1 161 59 304 173 422 l65 68 -36 0 c-21 0 -79 11 -131 25 -167 44 -394 67
-483 48z m-107 -380 c-4 -34 -33 -43 -43 -14 -8 27 1 41 26 41 16 0 20 -6 17
-27z m22 -63 c0 -6 -18 -9 -41 -7 -22 2 -42 0 -44 -3 -6 -9 84 -22 97 -14 9 6
37 -23 38 -39 0 -5 -38 -7 -85 -5 -47 2 -85 0 -85 -4 0 -3 41 -10 90 -14 68
-5 90 -10 90 -21 0 -12 -15 -13 -87 -7 -64 5 -84 4 -79 -5 4 -7 38 -11 89 -11
59 0 89 -5 105 -16 12 -8 20 -18 18 -22 -5 -9 -282 1 -291 10 -4 4 7 30 24 58
17 28 31 53 31 56 0 3 8 16 18 29 14 20 26 24 65 25 26 0 47 -4 47 -10z m93
-189 c113 -1 117 -2 117 -22 0 -22 0 -22 -192 -15 -279 10 -327 15 -323 35 2
9 4 16 4 16 1 0 63 -3 138 -6 76 -4 191 -7 256 -8z m-114 -51 l116 -1 -27 -24
c-26 -22 -32 -23 -125 -18 -87 5 -101 8 -123 30 l-25 25 34 -6 c18 -3 86 -6
150 -6z m59 -78 c26 -34 15 -38 -93 -38 l-104 1 6 25 c3 14 7 28 9 31 2 3 40
4 86 1 60 -3 86 -8 96 -20z m-15 -62 c206 -30 344 -212 270 -355 -62 -118
-202 -181 -388 -174 -75 4 -101 9 -155 35 -36 17 -85 50 -108 73 -144 141 -93
307 118 389 113 44 150 48 263 32z m-31 -580 c5 -36 -4 -40 -74 -33 -53 5 -54
6 -50 34 4 28 6 29 62 29 56 0 58 -1 62 -30z m84 -62 c3 -4 4 -14 1 -22 -9
-23 -275 -23 -284 0 -3 9 0 20 8 24 15 10 265 8 275 -2z m80 -55 c15 -5 20
-33 7 -34 -5 0 -108 -2 -230 -4 -213 -4 -223 -3 -223 15 0 15 9 19 48 22 86 6
385 6 398 1z"/>
<path d="M4500 2380 c-223 -60 -294 -221 -154 -350 99 -91 217 -117 369 -81
142 34 214 93 223 182 8 80 -5 116 -57 169 -88 88 -235 119 -381 80z m237 -19
c85 -26 139 -64 165 -116 53 -105 15 -200 -103 -256 -43 -20 -52 -21 -59 -9
-6 9 -6 16 0 18 19 7 9 21 -17 24 -35 4 -40 24 -8 32 14 4 31 17 37 30 6 15
16 22 24 19 9 -3 14 2 14 14 0 10 6 28 14 39 11 16 12 23 2 37 -7 9 -16 14
-20 10 -10 -10 -66 48 -66 68 0 10 -4 20 -9 23 -4 3 -6 18 -3 33 5 27 4 27
-14 11 -12 -11 -28 -15 -42 -11 -15 3 -22 1 -22 -8 0 -15 -61 -24 -70 -10 -3
4 -22 11 -43 15 -36 7 -38 6 -32 -13 4 -12 2 -21 -4 -21 -20 0 -11 -18 12 -24
21 -6 21 -7 -10 -26 -26 -15 -33 -27 -34 -52 -1 -18 -3 -25 -6 -15 -6 23 -11
22 -39 -8 -13 -14 -19 -25 -14 -25 5 0 21 -20 36 -45 14 -25 33 -49 42 -55 14
-8 15 -11 3 -19 -11 -7 -10 -11 5 -19 15 -9 17 -13 6 -23 -10 -11 -18 -10 -45
5 -66 39 -98 69 -123 118 -21 42 -25 59 -19 97 20 133 255 219 442 162z m-103
-84 c11 -8 15 -19 10 -30 -7 -20 -25 -22 -42 -5 -9 9 -12 8 -12 -4 0 -20 -29
-17 -41 4 -20 36 46 63 85 35z m77 -37 c23 -13 25 -55 4 -64 -20 -7 -45 3 -45
19 0 7 -6 15 -12 18 -10 3 -10 7 1 20 16 20 25 21 52 7z m-181 -20 c10 -7 12
-12 4 -17 -6 -5 -16 -18 -23 -30 -19 -38 -59 -4 -46 38 7 21 40 25 65 9z m88
-68 c3 -18 -2 -22 -22 -22 -33 0 -44 20 -20 37 24 17 38 12 42 -15z m106 -25
c25 -18 16 -50 -17 -61 -36 -13 -49 1 -41 42 7 35 27 41 58 19z m-201 -28 c23
-42 22 -49 -12 -49 -19 0 -35 8 -45 22 -14 20 -14 24 1 40 23 25 35 22 56 -13z
m122 -55 c0 -16 -7 -19 -40 -19 -29 0 -41 4 -43 17 -2 12 5 18 30 21 46 5 53
3 53 -19z m25 -53 c0 -17 -5 -33 -12 -37 -14 -9 -124 -8 -138 1 -19 11 -1 22
27 17 25 -5 27 -4 14 11 -12 15 -10 17 25 17 22 0 46 5 54 10 24 16 30 12 30
-19z m40 -21 c0 -5 -8 -10 -17 -10 -15 0 -16 2 -3 10 19 12 20 12 20 0z"/>
<path d="M5403 3138 c-73 -76 -128 -159 -165 -252 -31 -76 -33 -88 -32 -201 0
-126 9 -168 61 -287 17 -38 32 -58 43 -58 23 0 103 72 140 126 81 117 111 219
111 373 0 159 -49 351 -90 351 -9 0 -40 -24 -68 -52z"/>
<path d="M2484 2227 c-70 -90 -106 -148 -139 -226 -41 -97 -55 -163 -55 -256
0 -62 3 -78 19 -91 115 -97 145 -158 144 -299 -1 -93 -10 -132 -93 -390 -41
-128 -53 -299 -26 -369 25 -66 101 -140 158 -154 133 -34 212 5 278 138 39 77
38 153 -5 315 -77 293 -87 344 -83 441 3 78 8 100 36 156 17 35 48 82 69 103
21 22 32 36 25 31 -10 -6 -12 3 -8 41 9 109 -55 311 -147 458 -22 36 -119 155
-126 155 -3 -1 -24 -24 -47 -53z m67 -4 c13 -16 12 -17 -3 -4 -10 7 -18 15
-18 17 0 8 8 3 21 -13z"/>
<path d="M1699 1873 c-13 -16 -12 -17 4 -4 9 7 17 15 17 17 0 8 -8 3 -21 -13z"/>
<path d="M5964 1679 c-4 -8 -3 -9 5 -5 6 4 19 2 28 -6 14 -11 15 -11 11 2 -6
19 -34 25 -44 9z"/>
</g>
</svg>
